<?xml version="1.0" encoding="UTF-8" standalone="no"?> <svg xmlns="http://www.w3.org/2000/svg" xmlns:xlink="http://www.w3.org/1999/xlink" viewBox="0 0 64 64"><defs><style>.cls-1{fill:url(#linear-gradient);}.cls-2{fill:url(#linear-gradient-2);}.cls-3{fill:url(#linear-gradient-3);}</style><linearGradient id="linear-gradient" x1="1.54" y1="32" x2="22.46" y2="32" gradientUnits="userSpaceOnUse"><stop offset="0" stop-color="#ffae46"/><stop offset="0.19" stop-color="#ff9755"/><stop offset="0.74" stop-color="#ff5a7d"/><stop offset="1" stop-color="#ff428d"/></linearGradient><linearGradient id="linear-gradient-2" x1="41.08" x2="62" xlink:href="#linear-gradient"/><linearGradient id="linear-gradient-3" x1="25.46" x2="38.54" xlink:href="#linear-gradient"/></defs><g id="Layer_61" data-name="Layer 61"><path class="cls-1" d="M21.87,13.67a2,2,0,0,0-2.83,0L2.13,30.59a2,2,0,0,0,0,2.82L19,50.33a2,2,0,0,0,1.42.59,2,2,0,0,0,1.41-3.42L6.37,32l15.5-15.5A2,2,0,0,0,21.87,13.67Z"/><path class="cls-2" d="M61.41,30.59,44.5,13.67a2,2,0,0,0-2.83,2.83L57.17,32,41.67,47.5a2,2,0,1,0,2.83,2.83L61.41,33.41A2,2,0,0,0,61.41,30.59Z"/><path class="cls-3" d="M36.93,7.49a2,2,0,0,0-2.36,1.57L25.5,54.15a2,2,0,0,0,1.57,2.36,1.81,1.81,0,0,0,.4,0,2,2,0,0,0,2-1.61L38.5,9.85A2,2,0,0,0,36.93,7.49Z"/></g></svg>